Coordinates
version=1
nRows=19
nColumns=36
inDegrees=yes

Units are S.I. units (second, meters, Newtons, ...)
If the header above contains a line with 'inDegrees', this indicates whether rotational values are in degrees (yes) or radians (no).

endheader
time	pelvis_tilt	pelvis_list	pelvis_rotation	pelvis_tx	pelvis_ty	pelvis_tz	hip_flexion_r	hip_adduction_r	hip_rotation_r	knee_angle_r	knee_angle_r_beta	ankle_angle_r	subtalar_angle_r	mtp_angle_r	hip_flexion_l	hip_adduction_l	hip_rotation_l	knee_angle_l	knee_angle_l_beta	ankle_angle_l	subtalar_angle_l	mtp_angle_l	lumbar_extension	lumbar_bending	lumbar_rotation	arm_flex_r	arm_add_r	arm_rot_r	elbow_flex_r	pro_sup_r	arm_flex_l	arm_add_l	arm_rot_l	elbow_flex_l	pro_sup_l
      1.97500000	     -6.36294013	      0.84424585	     -2.27183549	     -0.97056319	      1.24468379	     -0.04431996	      2.31337908	     -0.34568039	      1.34629803	      0.67554653	      0.01179051	      4.21197583	     -7.90836730	     -7.49999987	      0.93678120	     -1.07701521	     -8.66498921	      1.05299892	      0.01837830	      8.30855813	      6.03621369	     -7.49999987	     -1.99520521	      0.63174694	      2.06141607	     -0.67513414	     -9.24932318	     30.02262392	     38.46674908	     68.45559541	      0.78077491	     -8.65854146	     29.99602988	     40.30973554	     80.80802294
      1.97916670	     -6.27134458	      0.85765520	     -2.19921309	     -0.97189130	      1.24208999	     -0.04380841	      2.26061832	     -0.36906662	      1.27557224	      0.67284330	      0.01174333	      4.21504116	     -7.70488161	     -7.49999987	      0.85304825	     -1.04821518	     -8.65349410	      1.04036084	      0.01815772	      8.21661333	      5.96165295	     -7.49999987	     -2.18387032	      0.63872345	      2.07332522	     -0.49611474	     -9.36554285	     31.03375762	     38.50022174	     65.13754761	      0.92511085	     -8.89080007	     31.49173052	     40.71369861	     73.75803313
      1.98333330	     -6.36428705	      0.82736793	     -2.16541145	     -0.97196087	      1.24031209	     -0.04386480	      2.40171696	     -0.31985452	      1.30772604	      0.69505179	      0.01213094	      4.10967905	     -7.68725452	     -7.49999987	      0.98799768	     -1.09208269	     -8.55129953	      1.03520637	      0.01806776	      8.07407759	      5.87204398	     -7.49999987	     -2.10332433	      0.65100629	      2.08649773	     -0.48035308	     -9.26654514	     30.63813537	     38.22189374	     68.41294029	      0.92963512	     -8.67896497	     30.29356702	     40.34638562	     81.09057457
      1.98750000	     -6.33458534	      0.80536703	     -2.14517831	     -0.97156791	      1.24117615	     -0.04436479	      2.39503584	     -0.31128028	      1.36248089	      0.71768106	      0.01252590	      3.97833012	     -7.77349396	     -7.49999987	      0.95667103	     -1.10408978	     -8.51433328	      1.01333992	      0.01768612	      8.05299570	      5.94765505	     -7.49999987	     -2.18828212	      0.68333829	      2.08997069	     -0.45990587	     -9.26062143	     30.69172589	     38.19818138	     68.12188635	      0.97602945	     -8.62542993	     30.28668795	     40.32926716	     80.51598537
      1.99166670	     -6.18104637	      0.76827470	     -2.06683752	     -0.97225544	      1.24084341	     -0.04441104	      2.26394410	     -0.29658647	      0.98746156	      0.75309956	      0.01314407	      4.06339524	     -7.23601817	     -7.49999987	      0.79840562	     -1.12597930	     -8.33685131	      0.98674886	      0.01722202	      8.03216770	      5.79338486	     -7.49999987	     -2.41305390	      0.74509677	      2.07906986	     -0.32119344	     -9.34808554	     31.40742968	     38.17011495	     64.64055981	      1.14966085	     -8.72970758	     31.60303674	     40.51591332	     72.81664860
      1.99583330	     -6.30588894	      0.74412344	     -2.14925275	     -0.97210938	      1.23999697	     -0.04427409	      2.44095288	     -0.25624307	      1.46062632	      0.78368271	      0.01367784	      3.75660918	     -7.95077615	     -7.49999987	      0.93418221	     -1.15668226	     -8.44396344	      1.00623525	      0.01756212	      8.08019959	      5.96103396	     -7.49999987	     -2.27738529	      0.79854365	      2.27257157	     -0.40895767	     -9.35226880	     31.12923019	     38.09577255	     68.00033088	      1.15960812	     -8.55408069	     30.89920902	     40.18011801	     80.55608426
      2.00000000	     -6.21582224	      0.74291211	     -2.09226036	     -0.97050993	      1.24351704	     -0.04476245	      2.31973651	     -0.27398783	      1.33312797	      0.79553215	      0.01388466	      3.81235896	     -7.58904030	     -7.49999987	      0.79598385	     -1.15278331	     -8.37482696	      0.98201456	      0.01713939	      8.01701176	      5.95038289	     -7.49999987	     -2.40526015	      0.81754280	      2.23059784	     -0.40656231	     -9.30199900	     31.02111883	     37.99218801	     68.29959447	      1.06888391	     -8.42127704	     30.51600137	     40.13988239	     81.00938299
      2.00416670	     -6.21595119	      0.76162998	     -2.08230593	     -0.97012990	      1.24867459	     -0.04426996	      2.31013880	     -0.29621505	      1.30351646	      0.81068644	      0.01414915	      3.68951216	     -7.52612920	     -7.49999987	      0.75442804	     -1.14988203	     -8.35351408	      0.97963969	      0.01709794	      7.90926767	      5.98172617	     -7.49999987	     -2.42278816	      0.83327535	      2.25990571	     -0.43401373	     -9.25712777	     31.03677376	     37.96522935	     68.30309666	      0.97837618	     -8.35749028	     30.54144897	     40.11445824	     81.01441216
      2.00833330	     -6.02483695	      0.77550585	     -2.03843495	     -0.96937590	      1.24693283	     -0.04414667	      2.05256827	     -0.32707110	      1.13614806	      0.74903611	      0.01307315	      3.55839264	     -7.21827331	     -7.49999987	      0.46708112	     -1.11810016	     -8.36559929	      0.89036307	      0.01553977	      7.63231496	      5.90259353	     -7.49999987	     -2.62010803	      0.83221780	      2.24846754	     -0.36997572	     -9.18269123	     31.32547708	     37.73617989	     66.31139343	      1.03002385	     -8.35657973	     31.22335027	     40.06429863	     76.54971157
      2.01250000	     -6.03400814	      0.78803303	     -2.04081754	     -0.96900698	      1.24303096	     -0.04320917	      2.03062836	     -0.33491615	      1.13561257	      0.73269128	      0.01278788	      3.55618664	     -7.03800712	     -7.49999987	      0.41196562	     -1.12035091	     -8.35198172	      0.84584013	      0.01476270	      7.59597946	      5.97545140	     -7.49999987	     -2.52038783	      0.79808108	      2.25332524	     -0.46749298	     -9.06849166	     31.25996194	     37.51907005	     67.66449895	      0.97833530	     -8.32189585	     31.08780892	     39.84320375	     79.57820941
      2.01666670	     -6.02537600	      0.78382801	     -2.03983541	     -0.97233567	      1.24226440	     -0.04465701	      2.03271621	     -0.34485127	      1.13900889	      0.72790051	      0.01270426	      3.55622256	     -7.03545155	     -7.49999987	      0.42684543	     -1.11849913	     -8.35114498	      0.83771789	      0.01462094	      7.59811942	      5.97520510	     -7.49999987	     -2.52047677	      0.79691567	      2.25393777	     -0.46963149	     -9.06465093	     31.26096109	     37.51940807	     67.66482347	      0.97585834	     -8.32109151	     31.08844708	     39.84341373	     79.57885079
      2.02083330	     -5.93608133	      0.80680353	     -1.93307040	     -0.97134778	      1.24332739	     -0.04483358	      1.92020029	     -0.40766985	      1.14378135	      0.67233008	      0.01173437	      3.70235247	     -6.68280871	     -7.49999987	      0.33340096	     -1.07429300	     -8.20874582	      0.79705022	      0.01391115	      7.62699825	      5.92783767	     -7.49999987	     -2.69141840	      0.77521428	      2.11585421	     -0.43177413	     -8.96815438	     31.01506531	     37.42294180	     68.46688374	      1.00406874	     -8.23582409	     30.76860349	     39.82402251	     81.68252784
      2.02500000	     -5.83476357	      0.80643110	     -1.88242937	     -0.97159564	      1.24307177	     -0.04402161	      1.83104915	     -0.42793587	      1.18873553	      0.64833992	      0.01131567	      3.75756025	     -6.56941887	     -7.49999987	      0.23883057	     -1.06849485	     -8.05755281	      0.77651378	      0.01355272	      7.58853379	      5.69047315	     -7.49999987	     -2.81490323	      0.76981778	      2.11956230	     -0.30051319	     -9.00316854	     31.64684073	     37.42168876	     64.72070482	      1.16777986	     -8.37567680	     32.14347708	     40.05695550	     73.49153403
      2.02916670	     -5.85784853	      0.82373103	     -1.84285665	     -0.97194443	      1.24387329	     -0.04376923	      1.88598949	     -0.45419203	      1.13018349	      0.63698068	      0.01111741	      3.84061509	     -6.31481613	     -7.49999987	      0.29337868	     -1.05352528	     -8.04319072	      0.77948178	      0.01360452	      7.60430114	      5.74926375	     -7.49999987	     -2.81458472	      0.72272589	      2.13819077	     -0.24091465	     -8.96515817	     31.45570578	     37.23729618	     68.20577841	      1.22477885	     -8.28957093	     31.40434738	     39.73815222	     81.77418578
      2.03333330	     -5.83049532	      0.82542384	     -1.81121647	     -0.97196281	      1.24403174	     -0.04409653	      1.88148251	     -0.45456250	      1.15019386	      0.62616460	      0.01092863	      3.86694025	     -6.23913913	     -7.49999987	      0.28009138	     -1.05419532	     -8.08440887	      0.76919232	      0.01342494	      7.69303827	      5.95670332	     -7.49999987	     -2.89496000	      0.69575165	      2.02439587	     -0.12320662	     -8.91536781	     31.55992736	     37.17725160	     68.36846024	      1.18630566	     -8.26814500	     31.19664183	     39.78535698	     82.02343854
      2.03750000	     -5.66617281	      0.81886275	     -1.77278552	     -0.97071564	      1.24328394	     -0.04328785	      1.68536838	     -0.44829624	      1.00974790	      0.61879286	      0.01079997	      3.99632633	     -5.83897234	     -7.49999987	      0.07693347	     -1.06403916	     -8.20824377	      0.74928859	      0.01307755	      7.81858547	      6.19525715	     -7.49999987	     -3.09414778	      0.68293148	      1.99898373	      0.01090312	     -9.02952269	     32.27733270	     37.28472693	     66.23831235	      1.27153084	     -8.40499190	     32.27318433	     40.08381182	     77.12314467
      2.04166670	     -5.68279453	      0.80757888	     -1.73242026	     -0.97058582	      1.24701466	     -0.04388236	      1.66249245	     -0.41780835	      1.01501538	      0.62214588	      0.01085849	      3.85244864	     -6.19748267	     -7.49999987	      0.10477070	     -1.09534564	     -8.11343348	      0.74433806	      0.01299115	      7.69710811	      6.09736030	     -7.49999987	     -3.08203973	      0.68542794	      1.97591786	      0.02581105	     -8.89991722	     31.93426971	     37.05468538	     68.42871614	      1.13925790	     -8.17337112	     30.98573202	     39.78054695	     82.18884973
      2.04583330	     -5.58048339	      0.80421727	     -1.71113555	     -0.97090004	      1.24529465	     -0.04299264	      1.52683722	     -0.39681294	      0.98256576	      0.61483075	      0.01073082	      3.74954075	     -6.49999944	     -7.49999987	     -0.00049150	     -1.11158191	     -8.13872625	      0.73312224	      0.01279540	      7.65347110	      6.09782794	     -7.49999987	     -3.19340027	      0.67238759	      2.04993989	     -0.00887509	     -8.87682359	     31.85584772	     37.11078912	     68.28878000	      1.16893183	     -8.15113046	     30.97711417	     39.80244895	     82.11257072
      2.05000000	     -5.42658009	      0.81038154	     -1.61466405	     -0.97210713	      1.24215459	     -0.04323426	      1.34269625	     -0.39549194	      0.67384682	      0.61129425	      0.01066910	      3.76211617	     -6.55835863	     -7.49999987	     -0.13031191	     -1.10395818	     -7.96991650	      0.73329353	      0.01279839	      7.61078721	      5.91390198	     -7.49999987	     -3.40578924	      0.64834077	      1.97457781	      0.07972681	     -8.93221853	     32.16200089	     37.31234690	     68.23583104	      1.19614101	     -8.21204985	     31.06908549	     40.00920696	     81.71344565
